<mxfile host="app.diagrams.net" modified="2022-01-08T15:50:23.708Z" agent="5.0 (Windows NT 10.0; Win64; x64) AppleWebKit/537.36 (KHTML, like Gecko) Chrome/94.0.4606.54 Safari/537.36" etag="dABb52IqvEPbG87_xdQZ" version="16.2.4" type="github">
  <diagram id="ZPF3tHY2ULWxmhOBvN_I" name="Page-1">
    <mxGraphModel dx="920" dy="558" grid="1" gridSize="10" guides="1" tooltips="1" connect="1" arrows="1" fold="1" page="1" pageScale="1" pageWidth="827" pageHeight="1169" math="0" shadow="0">
      <root>
        <mxCell id="0" />
        <mxCell id="1" parent="0" />
        <mxCell id="LtlamNd-P_xT50A22_3L-1" value="data" style="rounded=0;whiteSpace=wrap;html=1;" vertex="1" parent="1">
          <mxGeometry x="140" y="100" width="50" height="80" as="geometry" />
        </mxCell>
        <mxCell id="LtlamNd-P_xT50A22_3L-13" style="edgeStyle=orthogonalEdgeStyle;rounded=0;orthogonalLoop=1;jettySize=auto;html=1;exitX=1;exitY=0.5;exitDx=0;exitDy=0;" edge="1" parent="1" source="LtlamNd-P_xT50A22_3L-2" target="LtlamNd-P_xT50A22_3L-4">
          <mxGeometry relative="1" as="geometry" />
        </mxCell>
        <mxCell id="LtlamNd-P_xT50A22_3L-2" value="next" style="rounded=0;whiteSpace=wrap;html=1;" vertex="1" parent="1">
          <mxGeometry x="190" y="100" width="50" height="80" as="geometry" />
        </mxCell>
        <mxCell id="LtlamNd-P_xT50A22_3L-3" value="Node 节点" style="text;html=1;strokeColor=none;fillColor=none;align=center;verticalAlign=middle;whiteSpace=wrap;rounded=0;" vertex="1" parent="1">
          <mxGeometry x="160" y="180" width="60" height="30" as="geometry" />
        </mxCell>
        <mxCell id="LtlamNd-P_xT50A22_3L-4" value="data" style="rounded=0;whiteSpace=wrap;html=1;" vertex="1" parent="1">
          <mxGeometry x="310" y="100" width="50" height="80" as="geometry" />
        </mxCell>
        <mxCell id="LtlamNd-P_xT50A22_3L-14" style="edgeStyle=orthogonalEdgeStyle;rounded=0;orthogonalLoop=1;jettySize=auto;html=1;exitX=1;exitY=0.5;exitDx=0;exitDy=0;" edge="1" parent="1" source="LtlamNd-P_xT50A22_3L-5" target="LtlamNd-P_xT50A22_3L-7">
          <mxGeometry relative="1" as="geometry" />
        </mxCell>
        <mxCell id="LtlamNd-P_xT50A22_3L-5" value="next" style="rounded=0;whiteSpace=wrap;html=1;" vertex="1" parent="1">
          <mxGeometry x="360" y="100" width="50" height="80" as="geometry" />
        </mxCell>
        <mxCell id="LtlamNd-P_xT50A22_3L-6" value="Node 节点" style="text;html=1;strokeColor=none;fillColor=none;align=center;verticalAlign=middle;whiteSpace=wrap;rounded=0;" vertex="1" parent="1">
          <mxGeometry x="330" y="180" width="60" height="30" as="geometry" />
        </mxCell>
        <mxCell id="LtlamNd-P_xT50A22_3L-7" value="data" style="rounded=0;whiteSpace=wrap;html=1;" vertex="1" parent="1">
          <mxGeometry x="480" y="100" width="50" height="80" as="geometry" />
        </mxCell>
        <mxCell id="LtlamNd-P_xT50A22_3L-15" style="edgeStyle=orthogonalEdgeStyle;rounded=0;orthogonalLoop=1;jettySize=auto;html=1;exitX=1;exitY=0.5;exitDx=0;exitDy=0;entryX=0;entryY=0.5;entryDx=0;entryDy=0;" edge="1" parent="1" source="LtlamNd-P_xT50A22_3L-8" target="LtlamNd-P_xT50A22_3L-10">
          <mxGeometry relative="1" as="geometry" />
        </mxCell>
        <mxCell id="LtlamNd-P_xT50A22_3L-8" value="next" style="rounded=0;whiteSpace=wrap;html=1;" vertex="1" parent="1">
          <mxGeometry x="530" y="100" width="50" height="80" as="geometry" />
        </mxCell>
        <mxCell id="LtlamNd-P_xT50A22_3L-9" value="Node 节点" style="text;html=1;strokeColor=none;fillColor=none;align=center;verticalAlign=middle;whiteSpace=wrap;rounded=0;" vertex="1" parent="1">
          <mxGeometry x="500" y="180" width="60" height="30" as="geometry" />
        </mxCell>
        <mxCell id="LtlamNd-P_xT50A22_3L-10" value="data" style="rounded=0;whiteSpace=wrap;html=1;" vertex="1" parent="1">
          <mxGeometry x="650" y="100" width="50" height="80" as="geometry" />
        </mxCell>
        <mxCell id="LtlamNd-P_xT50A22_3L-11" value="next" style="rounded=0;whiteSpace=wrap;html=1;" vertex="1" parent="1">
          <mxGeometry x="700" y="100" width="50" height="80" as="geometry" />
        </mxCell>
        <mxCell id="LtlamNd-P_xT50A22_3L-12" value="Node 节点" style="text;html=1;strokeColor=none;fillColor=none;align=center;verticalAlign=middle;whiteSpace=wrap;rounded=0;" vertex="1" parent="1">
          <mxGeometry x="670" y="180" width="60" height="30" as="geometry" />
        </mxCell>
        <mxCell id="LtlamNd-P_xT50A22_3L-16" value="Class Node {&lt;br style=&quot;font-size: 16px&quot;&gt;&lt;span style=&quot;white-space: pre&quot;&gt;	&lt;/span&gt;Object data;&lt;br style=&quot;font-size: 16px&quot;&gt;&lt;span style=&quot;white-space: pre&quot;&gt;	&lt;/span&gt;Node next;&lt;br style=&quot;font-size: 16px&quot;&gt;}" style="text;html=1;strokeColor=none;fillColor=none;align=left;verticalAlign=top;whiteSpace=wrap;rounded=0;fontSize=16;" vertex="1" parent="1">
          <mxGeometry x="135" y="240" width="160" height="90" as="geometry" />
        </mxCell>
        <mxCell id="LtlamNd-P_xT50A22_3L-18" value="比较特殊的是头结点和尾结点&lt;br&gt;头结点没有 Node 指向它&lt;br&gt;尾结点的 next 指向 null" style="text;html=1;strokeColor=none;fillColor=none;align=center;verticalAlign=middle;whiteSpace=wrap;rounded=0;fontSize=16;" vertex="1" parent="1">
          <mxGeometry x="450" y="280" width="270" height="50" as="geometry" />
        </mxCell>
      </root>
    </mxGraphModel>
  </diagram>
</mxfile>
